<svg width="702" height="630" viewBox="0 0 702 630" fill="none" xmlns="http://www.w3.org/2000/svg">
<circle cx="59.956" cy="75.6369" r="44.396" stroke="#E0EFDE" stroke-width="15"/>
<circle cx="59.956" cy="75.6369" r="36.396" stroke="#292828"/>
<path d="M59.4948 39.2019C31.4538 38.8329 23.8286 63.338 23.5212 75.6367C24.5973 65.1829 33.2986 44.3674 59.4948 44.7363C85.691 45.1053 94.8535 64.8754 96.3908 74.7144C95.6222 63.0306 87.5358 39.5708 59.4948 39.2019Z" fill="#292828" stroke="#292828"/>
<circle cx="59.956" cy="172.489" r="44.396" stroke="#E0EFDE" stroke-width="15"/>
<circle cx="59.956" cy="172.489" r="36.396" stroke="#292828"/>
<path d="M59.4948 136.054C31.4538 135.685 23.8286 160.19 23.5212 172.489C24.5973 162.035 33.2986 141.22 59.4948 141.588C85.691 141.957 94.8535 161.728 96.3908 171.567C95.6222 159.883 87.5358 136.423 59.4948 136.054Z" fill="#292828" stroke="#292828"/>
<circle cx="59.956" cy="269.341" r="44.396" stroke="#E0EFDE" stroke-width="15"/>
<circle cx="59.956" cy="269.341" r="36.396" stroke="#292828"/>
<path d="M59.4948 232.906C31.4538 232.537 23.8286 257.043 23.5212 269.341C24.5973 258.887 33.2986 238.072 59.4948 238.441C85.691 238.81 94.8535 258.58 96.3908 268.419C95.6222 256.735 87.5358 233.275 59.4948 232.906Z" fill="#292828" stroke="#292828"/>
<circle cx="59.956" cy="366.193" r="44.396" stroke="#E0EFDE" stroke-width="15"/>
<circle cx="59.956" cy="366.193" r="36.396" stroke="#292828"/>
<path d="M59.4948 329.759C31.4538 329.39 23.8286 353.895 23.5212 366.193C24.5973 355.739 33.2986 334.924 59.4948 335.293C85.691 335.662 94.8535 355.432 96.3908 365.271C95.6222 353.587 87.5358 330.127 59.4948 329.759Z" fill="#292828" stroke="#292828"/>
<circle cx="59.956" cy="463.045" r="44.396" stroke="#E0EFDE" stroke-width="15"/>
<circle cx="59.956" cy="463.045" r="36.396" stroke="#292828"/>
<path d="M59.4948 426.611C31.4538 426.242 23.8286 450.747 23.5212 463.045C24.5973 452.592 33.2986 431.776 59.4948 432.145C85.691 432.514 94.8535 452.284 96.3908 462.123C95.6222 450.439 87.5358 426.98 59.4948 426.611Z" fill="#292828" stroke="#292828"/>
<circle cx="59.956" cy="559.898" r="44.396" stroke="#E0EFDE" stroke-width="15"/>
<circle cx="59.956" cy="559.898" r="36.396" stroke="#292828"/>
<path d="M59.4948 523.463C31.4538 523.094 23.8286 547.599 23.5212 559.897C24.5973 549.444 33.2986 528.628 59.4948 528.997C85.691 529.366 94.8535 549.136 96.3908 558.975C95.6222 547.291 87.5358 523.832 59.4948 523.463Z" fill="#292828" stroke="#292828"/>
<circle cx="156.808" cy="75.6369" r="44.396" stroke="#E0EFDE" stroke-width="15"/>
<circle cx="156.808" cy="75.6369" r="36.396" stroke="#292828"/>
<path d="M156.347 39.2019C128.306 38.8329 120.681 63.338 120.373 75.6367C121.449 65.1829 130.151 44.3674 156.347 44.7363C182.543 45.1053 191.706 64.8754 193.243 74.7144C192.474 63.0306 184.388 39.5708 156.347 39.2019Z" fill="#292828" stroke="#292828"/>
<circle cx="156.808" cy="172.489" r="44.396" stroke="#E0EFDE" stroke-width="15"/>
<circle cx="156.808" cy="172.489" r="36.396" stroke="#292828"/>
<path d="M156.347 136.054C128.306 135.685 120.681 160.19 120.373 172.489C121.449 162.035 130.151 141.22 156.347 141.588C182.543 141.957 191.706 161.728 193.243 171.567C192.474 159.883 184.388 136.423 156.347 136.054Z" fill="#292828" stroke="#292828"/>
<circle cx="156.808" cy="269.341" r="44.396" stroke="#E0EFDE" stroke-width="15"/>
<circle cx="156.808" cy="269.341" r="36.396" stroke="#292828"/>
<path d="M156.347 232.906C128.306 232.537 120.681 257.043 120.373 269.341C121.449 258.887 130.151 238.072 156.347 238.441C182.543 238.81 191.706 258.58 193.243 268.419C192.474 256.735 184.388 233.275 156.347 232.906Z" fill="#292828" stroke="#292828"/>
<circle cx="156.808" cy="366.193" r="44.396" stroke="#E0EFDE" stroke-width="15"/>
<circle cx="156.808" cy="366.193" r="36.396" stroke="#292828"/>
<path d="M156.347 329.759C128.306 329.39 120.681 353.895 120.373 366.193C121.449 355.739 130.151 334.924 156.347 335.293C182.543 335.662 191.706 355.432 193.243 365.271C192.474 353.587 184.388 330.127 156.347 329.759Z" fill="#292828" stroke="#292828"/>
<circle cx="156.808" cy="463.045" r="44.396" stroke="#E0EFDE" stroke-width="15"/>
<circle cx="156.808" cy="463.045" r="36.396" stroke="#292828"/>
<path d="M156.347 426.611C128.306 426.242 120.681 450.747 120.373 463.045C121.449 452.592 130.151 431.776 156.347 432.145C182.543 432.514 191.706 452.284 193.243 462.123C192.474 450.439 184.388 426.98 156.347 426.611Z" fill="#292828" stroke="#292828"/>
<circle cx="156.808" cy="559.898" r="44.396" stroke="#E0EFDE" stroke-width="15"/>
<circle cx="156.808" cy="559.898" r="36.396" stroke="#292828"/>
<path d="M156.347 523.463C128.306 523.094 120.681 547.599 120.373 559.897C121.449 549.444 130.151 528.628 156.347 528.997C182.543 529.366 191.706 549.136 193.243 558.975C192.474 547.291 184.388 523.832 156.347 523.463Z" fill="#292828" stroke="#292828"/>
<circle cx="253.66" cy="75.6369" r="44.396" stroke="#E0EFDE" stroke-width="15"/>
<circle cx="253.66" cy="75.6369" r="36.396" stroke="#292828"/>
<path d="M253.199 39.2019C225.158 38.8329 217.533 63.338 217.225 75.6367C218.302 65.1829 227.003 44.3674 253.199 44.7363C279.395 45.1053 288.558 64.8754 290.095 74.7144C289.326 63.0306 281.24 39.5708 253.199 39.2019Z" fill="#292828" stroke="#292828"/>
<circle cx="253.66" cy="172.489" r="44.396" stroke="#E0EFDE" stroke-width="15"/>
<circle cx="253.66" cy="172.489" r="36.396" stroke="#292828"/>
<path d="M253.199 136.054C225.158 135.685 217.533 160.19 217.225 172.489C218.302 162.035 227.003 141.22 253.199 141.588C279.395 141.957 288.558 161.728 290.095 171.567C289.326 159.883 281.24 136.423 253.199 136.054Z" fill="#292828" stroke="#292828"/>
<circle cx="253.66" cy="269.341" r="44.396" stroke="#E0EFDE" stroke-width="15"/>
<circle cx="253.66" cy="269.341" r="36.396" stroke="#292828"/>
<path d="M253.199 232.906C225.158 232.537 217.533 257.043 217.225 269.341C218.302 258.887 227.003 238.072 253.199 238.441C279.395 238.81 288.558 258.58 290.095 268.419C289.326 256.735 281.24 233.275 253.199 232.906Z" fill="#292828" stroke="#292828"/>
<circle cx="253.66" cy="366.193" r="44.396" stroke="#E0EFDE" stroke-width="15"/>
<circle cx="253.66" cy="366.193" r="36.396" stroke="#292828"/>
<path d="M253.199 329.759C225.158 329.39 217.533 353.895 217.225 366.193C218.302 355.739 227.003 334.924 253.199 335.293C279.395 335.662 288.558 355.432 290.095 365.271C289.326 353.587 281.24 330.127 253.199 329.759Z" fill="#292828" stroke="#292828"/>
<circle cx="253.66" cy="463.045" r="44.396" stroke="#E0EFDE" stroke-width="15"/>
<circle cx="253.66" cy="463.045" r="36.396" stroke="#292828"/>
<path d="M253.199 426.611C225.158 426.242 217.533 450.747 217.225 463.045C218.302 452.592 227.003 431.776 253.199 432.145C279.395 432.514 288.558 452.284 290.095 462.123C289.326 450.439 281.24 426.98 253.199 426.611Z" fill="#292828" stroke="#292828"/>
<circle cx="253.66" cy="559.898" r="44.396" stroke="#E0EFDE" stroke-width="15"/>
<circle cx="253.66" cy="559.898" r="36.396" stroke="#292828"/>
<path d="M253.199 523.463C225.158 523.094 217.533 547.599 217.225 559.897C218.302 549.444 227.003 528.628 253.199 528.997C279.395 529.366 288.558 549.136 290.095 558.975C289.326 547.291 281.24 523.832 253.199 523.463Z" fill="#292828" stroke="#292828"/>
<circle cx="350.512" cy="75.6369" r="44.396" stroke="#E0EFDE" stroke-width="15"/>
<circle cx="350.512" cy="75.6369" r="36.396" stroke="#292828"/>
<path d="M350.051 39.2019C322.01 38.8329 314.385 63.338 314.078 75.6367C315.154 65.1829 323.855 44.3674 350.051 44.7363C376.247 45.1053 385.41 64.8754 386.947 74.7144C386.179 63.0306 378.092 39.5708 350.051 39.2019Z" fill="#292828" stroke="#292828"/>
<circle cx="350.512" cy="172.489" r="44.396" stroke="#E0EFDE" stroke-width="15"/>
<circle cx="350.512" cy="172.489" r="36.396" stroke="#292828"/>
<path d="M350.051 136.054C322.01 135.685 314.385 160.19 314.078 172.489C315.154 162.035 323.855 141.22 350.051 141.588C376.247 141.957 385.41 161.728 386.947 171.567C386.179 159.883 378.092 136.423 350.051 136.054Z" fill="#292828" stroke="#292828"/>
<circle cx="350.512" cy="269.341" r="44.396" stroke="#E0EFDE" stroke-width="15"/>
<circle cx="350.512" cy="269.341" r="36.396" stroke="#292828"/>
<path d="M350.051 232.906C322.01 232.537 314.385 257.043 314.078 269.341C315.154 258.887 323.855 238.072 350.051 238.441C376.247 238.81 385.41 258.58 386.947 268.419C386.179 256.735 378.092 233.275 350.051 232.906Z" fill="#292828" stroke="#292828"/>
<circle cx="350.512" cy="366.193" r="44.396" stroke="#E0EFDE" stroke-width="15"/>
<circle cx="350.512" cy="366.193" r="36.396" stroke="#292828"/>
<path d="M350.051 329.759C322.01 329.39 314.385 353.895 314.078 366.193C315.154 355.739 323.855 334.924 350.051 335.293C376.247 335.662 385.41 355.432 386.947 365.271C386.179 353.587 378.092 330.127 350.051 329.759Z" fill="#292828" stroke="#292828"/>
<circle cx="350.512" cy="463.045" r="44.396" stroke="#E0EFDE" stroke-width="15"/>
<circle cx="350.512" cy="463.045" r="36.396" stroke="#292828"/>
<path d="M350.051 426.611C322.01 426.242 314.385 450.747 314.078 463.045C315.154 452.592 323.855 431.776 350.051 432.145C376.247 432.514 385.41 452.284 386.947 462.123C386.179 450.439 378.092 426.98 350.051 426.611Z" fill="#292828" stroke="#292828"/>
<circle cx="350.512" cy="559.898" r="44.396" stroke="#E0EFDE" stroke-width="15"/>
<circle cx="350.512" cy="559.898" r="36.396" stroke="#292828"/>
<path d="M350.051 523.463C322.01 523.094 314.385 547.599 314.078 559.897C315.154 549.444 323.855 528.628 350.051 528.997C376.247 529.366 385.41 549.136 386.947 558.975C386.179 547.291 378.092 523.832 350.051 523.463Z" fill="#292828" stroke="#292828"/>
<circle cx="447.365" cy="75.6369" r="44.396" stroke="#E0EFDE" stroke-width="15"/>
<circle cx="447.365" cy="75.6369" r="36.396" stroke="#292828"/>
<path d="M446.903 39.2019C418.862 38.8329 411.237 63.338 410.93 75.6367C412.006 65.1829 420.707 44.3674 446.903 44.7363C473.1 45.1053 482.262 64.8754 483.799 74.7144C483.031 63.0306 474.944 39.5708 446.903 39.2019Z" fill="#292828" stroke="#292828"/>
<circle cx="447.365" cy="172.489" r="44.396" stroke="#E0EFDE" stroke-width="15"/>
<circle cx="447.365" cy="172.489" r="36.396" stroke="#292828"/>
<path d="M446.903 136.054C418.862 135.685 411.237 160.19 410.93 172.489C412.006 162.035 420.707 141.22 446.903 141.588C473.1 141.957 482.262 161.728 483.799 171.567C483.031 159.883 474.944 136.423 446.903 136.054Z" fill="#292828" stroke="#292828"/>
<circle cx="447.365" cy="269.341" r="44.396" stroke="#E0EFDE" stroke-width="15"/>
<circle cx="447.365" cy="269.341" r="36.396" stroke="#292828"/>
<path d="M446.903 232.906C418.862 232.537 411.237 257.043 410.93 269.341C412.006 258.887 420.707 238.072 446.903 238.441C473.1 238.81 482.262 258.58 483.799 268.419C483.031 256.735 474.944 233.275 446.903 232.906Z" fill="#292828" stroke="#292828"/>
<circle cx="447.365" cy="366.193" r="44.396" stroke="#E0EFDE" stroke-width="15"/>
<circle cx="447.365" cy="366.193" r="36.396" stroke="#292828"/>
<path d="M446.903 329.759C418.862 329.39 411.237 353.895 410.93 366.193C412.006 355.739 420.707 334.924 446.903 335.293C473.1 335.662 482.262 355.432 483.799 365.271C483.031 353.587 474.944 330.127 446.903 329.759Z" fill="#292828" stroke="#292828"/>
<circle cx="447.365" cy="463.045" r="44.396" stroke="#E0EFDE" stroke-width="15"/>
<circle cx="447.365" cy="463.045" r="36.396" stroke="#292828"/>
<path d="M446.903 426.611C418.862 426.242 411.237 450.747 410.93 463.045C412.006 452.592 420.707 431.776 446.903 432.145C473.1 432.514 482.262 452.284 483.799 462.123C483.031 450.439 474.944 426.98 446.903 426.611Z" fill="#292828" stroke="#292828"/>
<circle cx="447.365" cy="559.898" r="44.396" stroke="#E0EFDE" stroke-width="15"/>
<circle cx="447.365" cy="559.898" r="36.396" stroke="#292828"/>
<path d="M446.903 523.463C418.862 523.094 411.237 547.599 410.93 559.897C412.006 549.444 420.707 528.628 446.903 528.997C473.1 529.366 482.262 549.136 483.799 558.975C483.031 547.291 474.944 523.832 446.903 523.463Z" fill="#292828" stroke="#292828"/>
<circle cx="544.216" cy="75.6369" r="44.396" stroke="#E0EFDE" stroke-width="15"/>
<circle cx="544.216" cy="75.6369" r="36.396" stroke="#292828"/>
<path d="M543.755 39.2019C515.714 38.8329 508.089 63.338 507.782 75.6367C508.858 65.1829 517.559 44.3674 543.755 44.7363C569.952 45.1053 579.114 64.8754 580.651 74.7144C579.883 63.0306 571.796 39.5708 543.755 39.2019Z" fill="#292828" stroke="#292828"/>
<circle cx="544.216" cy="172.489" r="44.396" stroke="#E0EFDE" stroke-width="15"/>
<circle cx="544.216" cy="172.489" r="36.396" stroke="#292828"/>
<path d="M543.755 136.054C515.714 135.685 508.089 160.19 507.782 172.489C508.858 162.035 517.559 141.22 543.755 141.588C569.952 141.957 579.114 161.728 580.651 171.567C579.883 159.883 571.796 136.423 543.755 136.054Z" fill="#292828" stroke="#292828"/>
<circle cx="544.216" cy="269.341" r="44.396" stroke="#E0EFDE" stroke-width="15"/>
<circle cx="544.216" cy="269.341" r="36.396" stroke="#292828"/>
<path d="M543.755 232.906C515.714 232.537 508.089 257.043 507.782 269.341C508.858 258.887 517.559 238.072 543.755 238.441C569.952 238.81 579.114 258.58 580.651 268.419C579.883 256.735 571.796 233.275 543.755 232.906Z" fill="#292828" stroke="#292828"/>
<circle cx="544.216" cy="366.193" r="44.396" stroke="#E0EFDE" stroke-width="15"/>
<circle cx="544.216" cy="366.193" r="36.396" stroke="#292828"/>
<path d="M543.755 329.759C515.714 329.39 508.089 353.895 507.782 366.193C508.858 355.739 517.559 334.924 543.755 335.293C569.952 335.662 579.114 355.432 580.651 365.271C579.883 353.587 571.796 330.127 543.755 329.759Z" fill="#292828" stroke="#292828"/>
<circle cx="544.216" cy="463.045" r="44.396" stroke="#E0EFDE" stroke-width="15"/>
<circle cx="544.216" cy="463.045" r="36.396" stroke="#292828"/>
<path d="M543.755 426.611C515.714 426.242 508.089 450.747 507.782 463.045C508.858 452.592 517.559 431.776 543.755 432.145C569.952 432.514 579.114 452.284 580.651 462.123C579.883 450.439 571.796 426.98 543.755 426.611Z" fill="#292828" stroke="#292828"/>
<circle cx="544.216" cy="559.898" r="44.396" stroke="#E0EFDE" stroke-width="15"/>
<circle cx="544.216" cy="559.898" r="36.396" stroke="#292828"/>
<path d="M543.755 523.463C515.714 523.094 508.089 547.599 507.782 559.897C508.858 549.444 517.559 528.628 543.755 528.997C569.952 529.366 579.114 549.136 580.651 558.975C579.883 547.291 571.796 523.832 543.755 523.463Z" fill="#292828" stroke="#292828"/>
<circle cx="641.069" cy="75.6369" r="44.396" stroke="#E0EFDE" stroke-width="15"/>
<circle cx="641.069" cy="75.6369" r="36.396" stroke="#292828"/>
<path d="M640.607 39.2019C612.566 38.8329 604.941 63.338 604.634 75.6367C605.71 65.1829 614.411 44.3674 640.607 44.7363C666.804 45.1053 675.966 64.8754 677.503 74.7144C676.735 63.0306 668.648 39.5708 640.607 39.2019Z" fill="#292828" stroke="#292828"/>
<circle cx="641.069" cy="172.489" r="44.396" stroke="#E0EFDE" stroke-width="15"/>
<circle cx="641.069" cy="172.489" r="36.396" stroke="#292828"/>
<path d="M640.607 136.054C612.566 135.685 604.941 160.19 604.634 172.489C605.71 162.035 614.411 141.22 640.607 141.588C666.804 141.957 675.966 161.728 677.503 171.567C676.735 159.883 668.648 136.423 640.607 136.054Z" fill="#292828" stroke="#292828"/>
<circle cx="641.069" cy="269.341" r="44.396" stroke="#E0EFDE" stroke-width="15"/>
<circle cx="641.069" cy="269.341" r="36.396" stroke="#292828"/>
<path d="M640.607 232.906C612.566 232.537 604.941 257.043 604.634 269.341C605.71 258.887 614.411 238.072 640.607 238.441C666.804 238.81 675.966 258.58 677.503 268.419C676.735 256.735 668.648 233.275 640.607 232.906Z" fill="#292828" stroke="#292828"/>
<circle cx="641.069" cy="366.193" r="44.396" stroke="#E0EFDE" stroke-width="15"/>
<circle cx="641.069" cy="366.193" r="36.396" stroke="#292828"/>
<path d="M640.607 329.759C612.566 329.39 604.941 353.895 604.634 366.193C605.71 355.739 614.411 334.924 640.607 335.293C666.804 335.662 675.966 355.432 677.503 365.271C676.735 353.587 668.648 330.127 640.607 329.759Z" fill="#292828" stroke="#292828"/>
<circle cx="641.069" cy="463.045" r="44.396" stroke="#E0EFDE" stroke-width="15"/>
<circle cx="641.069" cy="463.045" r="36.396" stroke="#292828"/>
<path d="M640.607 426.611C612.566 426.242 604.941 450.747 604.634 463.045C605.71 452.592 614.411 431.776 640.607 432.145C666.804 432.514 675.966 452.284 677.503 462.123C676.735 450.439 668.648 426.98 640.607 426.611Z" fill="#292828" stroke="#292828"/>
<circle cx="641.069" cy="559.898" r="44.396" stroke="#E0EFDE" stroke-width="15"/>
<circle cx="641.069" cy="559.898" r="36.396" stroke="#292828"/>
<path d="M640.607 523.463C612.566 523.094 604.941 547.599 604.634 559.897C605.71 549.444 614.411 528.628 640.607 528.997C666.804 529.366 675.966 549.136 677.503 558.975C676.735 547.291 668.648 523.832 640.607 523.463Z" fill="#292828" stroke="#292828"/>
<rect x="96.8521" y="25.8273" width="23.06" height="582.957" fill="#E0EFDE"/>
<rect y="25.8273" width="23.06" height="582.957" fill="#E0EFDE"/>
<rect x="687.189" y="112.533" width="23.0601" height="674.275" transform="rotate(90 687.189 112.533)" fill="#E0EFDE"/>
<rect x="687.189" y="209.385" width="23.0601" height="674.275" transform="rotate(90 687.189 209.385)" fill="#E0EFDE"/>
<rect x="687.189" y="306.237" width="23.0601" height="674.275" transform="rotate(90 687.189 306.237)" fill="#E0EFDE"/>
<rect x="687.189" y="403.089" width="23.0601" height="674.275" transform="rotate(90 687.189 403.089)" fill="#E0EFDE"/>
<rect x="687.189" y="499.941" width="23.0601" height="674.275" transform="rotate(90 687.189 499.941)" fill="#E0EFDE"/>
<path d="M701.025 596.793L701.025 625C701.025 627.761 698.786 630 696.025 630L4.99993 630C2.23851 630 -6.23888e-05 627.761 -6.22681e-05 625L-6.10352e-05 596.793L701.025 596.793Z" fill="#E0EFDE"/>
<path d="M696.025 -2.18557e-07C698.786 -9.78511e-08 701.025 2.23858 701.025 5L701.025 33.2065L-6.24867e-05 33.2064L-6.12537e-05 4.99997C-6.1133e-05 2.23855 2.23852 -3.05449e-05 4.99994 -3.04242e-05L696.025 -2.18557e-07Z" fill="#E0EFDE"/>
<rect x="193.704" y="25.8273" width="23.06" height="582.957" fill="#E0EFDE"/>
<rect x="290.556" y="25.8273" width="23.06" height="582.957" fill="#E0EFDE"/>
<rect x="387.408" y="25.8273" width="23.06" height="582.957" fill="#E0EFDE"/>
<rect x="484.26" y="25.8273" width="23.06" height="582.957" fill="#E0EFDE"/>
<rect x="581.113" y="25.8273" width="23.06" height="582.957" fill="#E0EFDE"/>
<rect x="677.965" y="25.8273" width="23.06" height="582.957" fill="#E0EFDE"/>
<ellipse cx="108.382" cy="124.063" rx="21.6764" ry="21.6764" fill="#E0EFDE"/>
<ellipse cx="108.382" cy="27.2108" rx="21.6764" ry="21.6764" fill="#E0EFDE"/>
<ellipse cx="108.382" cy="220.915" rx="21.6764" ry="21.6764" fill="#E0EFDE"/>
<ellipse cx="108.382" cy="316.845" rx="21.6764" ry="21.6764" fill="#E0EFDE"/>
<ellipse cx="108.382" cy="410.93" rx="21.6764" ry="21.6764" fill="#E0EFDE"/>
<ellipse cx="108.382" cy="511.471" rx="21.6764" ry="21.6764" fill="#E0EFDE"/>
<ellipse cx="108.382" cy="608.324" rx="21.6764" ry="21.6764" fill="#E0EFDE"/>
<ellipse cx="21.6764" cy="124.063" rx="21.6764" ry="21.6764" fill="#E0EFDE"/>
<ellipse cx="21.6764" cy="27.2108" rx="21.6764" ry="21.6764" fill="#E0EFDE"/>
<ellipse cx="21.6764" cy="220.915" rx="21.6764" ry="21.6764" fill="#E0EFDE"/>
<ellipse cx="21.6764" cy="316.845" rx="21.6764" ry="21.6764" fill="#E0EFDE"/>
<ellipse cx="21.6764" cy="410.93" rx="21.6764" ry="21.6764" fill="#E0EFDE"/>
<ellipse cx="21.6764" cy="511.471" rx="21.6764" ry="21.6764" fill="#E0EFDE"/>
<ellipse cx="21.6764" cy="608.324" rx="21.6764" ry="21.6764" fill="#E0EFDE"/>
<ellipse cx="205.234" cy="124.063" rx="21.6764" ry="21.6764" fill="#E0EFDE"/>
<ellipse cx="205.234" cy="27.2108" rx="21.6764" ry="21.6764" fill="#E0EFDE"/>
<ellipse cx="205.234" cy="220.915" rx="21.6764" ry="21.6764" fill="#E0EFDE"/>
<ellipse cx="205.234" cy="316.845" rx="21.6764" ry="21.6764" fill="#E0EFDE"/>
<ellipse cx="205.234" cy="410.93" rx="21.6764" ry="21.6764" fill="#E0EFDE"/>
<ellipse cx="205.234" cy="511.471" rx="21.6764" ry="21.6764" fill="#E0EFDE"/>
<ellipse cx="205.234" cy="608.324" rx="21.6764" ry="21.6764" fill="#E0EFDE"/>
<ellipse cx="302.086" cy="124.063" rx="21.6764" ry="21.6764" fill="#E0EFDE"/>
<ellipse cx="302.086" cy="27.2108" rx="21.6764" ry="21.6764" fill="#E0EFDE"/>
<ellipse cx="302.086" cy="220.915" rx="21.6764" ry="21.6764" fill="#E0EFDE"/>
<ellipse cx="302.086" cy="316.845" rx="21.6764" ry="21.6764" fill="#E0EFDE"/>
<ellipse cx="302.086" cy="410.93" rx="21.6764" ry="21.6764" fill="#E0EFDE"/>
<ellipse cx="302.086" cy="511.471" rx="21.6764" ry="21.6764" fill="#E0EFDE"/>
<ellipse cx="302.086" cy="608.324" rx="21.6764" ry="21.6764" fill="#E0EFDE"/>
<ellipse cx="398.938" cy="124.063" rx="21.6764" ry="21.6764" fill="#E0EFDE"/>
<ellipse cx="398.938" cy="27.2108" rx="21.6764" ry="21.6764" fill="#E0EFDE"/>
<ellipse cx="398.938" cy="220.915" rx="21.6764" ry="21.6764" fill="#E0EFDE"/>
<ellipse cx="398.938" cy="316.845" rx="21.6764" ry="21.6764" fill="#E0EFDE"/>
<ellipse cx="398.938" cy="410.93" rx="21.6764" ry="21.6764" fill="#E0EFDE"/>
<ellipse cx="398.938" cy="511.471" rx="21.6764" ry="21.6764" fill="#E0EFDE"/>
<ellipse cx="398.938" cy="608.324" rx="21.6764" ry="21.6764" fill="#E0EFDE"/>
<ellipse cx="495.791" cy="124.063" rx="21.6764" ry="21.6764" fill="#E0EFDE"/>
<ellipse cx="495.791" cy="27.2108" rx="21.6764" ry="21.6764" fill="#E0EFDE"/>
<ellipse cx="495.791" cy="220.915" rx="21.6764" ry="21.6764" fill="#E0EFDE"/>
<ellipse cx="495.791" cy="316.845" rx="21.6764" ry="21.6764" fill="#E0EFDE"/>
<ellipse cx="495.791" cy="410.93" rx="21.6764" ry="21.6764" fill="#E0EFDE"/>
<ellipse cx="495.791" cy="511.471" rx="21.6764" ry="21.6764" fill="#E0EFDE"/>
<ellipse cx="495.791" cy="608.324" rx="21.6764" ry="21.6764" fill="#E0EFDE"/>
<ellipse cx="592.643" cy="124.063" rx="21.6764" ry="21.6764" fill="#E0EFDE"/>
<ellipse cx="592.643" cy="27.2108" rx="21.6764" ry="21.6764" fill="#E0EFDE"/>
<ellipse cx="592.643" cy="220.915" rx="21.6764" ry="21.6764" fill="#E0EFDE"/>
<ellipse cx="592.643" cy="316.845" rx="21.6764" ry="21.6764" fill="#E0EFDE"/>
<ellipse cx="592.643" cy="410.93" rx="21.6764" ry="21.6764" fill="#E0EFDE"/>
<ellipse cx="592.643" cy="511.471" rx="21.6764" ry="21.6764" fill="#E0EFDE"/>
<ellipse cx="592.643" cy="608.324" rx="21.6764" ry="21.6764" fill="#E0EFDE"/>
<ellipse cx="679.348" cy="124.063" rx="21.6764" ry="21.6764" fill="#E0EFDE"/>
<ellipse cx="679.348" cy="27.2108" rx="21.6764" ry="21.6764" fill="#E0EFDE"/>
<ellipse cx="679.348" cy="220.915" rx="21.6764" ry="21.6764" fill="#E0EFDE"/>
<ellipse cx="679.348" cy="316.845" rx="21.6764" ry="21.6764" fill="#E0EFDE"/>
<ellipse cx="679.348" cy="410.93" rx="21.6764" ry="21.6764" fill="#E0EFDE"/>
<ellipse cx="679.348" cy="511.471" rx="21.6764" ry="21.6764" fill="#E0EFDE"/>
<ellipse cx="679.348" cy="608.324" rx="21.6764" ry="21.6764" fill="#E0EFDE"/>
</svg>
